<svg width="580" height="97" viewBox="0 0 580 97" fill="none" xmlns="http://www.w3.org/2000/svg">
<path d="M11.5455 1.90909H12.5455V0.909088H11.5455V1.90909ZM11.5455 95V96H12.5455V95H11.5455ZM0.272728 95H-0.727272V96H0.272728V95ZM0.272728 1.90909V0.909088H-0.727272V1.90909H0.272728ZM10.5455 1.90909V95H12.5455V1.90909H10.5455ZM11.5455 94H0.272728V96H11.5455V94ZM1.27273 95V1.90909H-0.727272V95H1.27273ZM0.272728 2.90909H11.5455V0.909088H0.272728V2.90909ZM34.1477 1.90909V0.909088H33.1477V1.90909H34.1477ZM47.6023 1.90909L48.5277 1.5302L48.2734 0.909088H47.6023V1.90909ZM79.2386 79.1818L78.3132 79.5607L78.5675 80.1818H79.2386V79.1818ZM80.3295 79.1818V80.1818H81.0007L81.255 79.5607L80.3295 79.1818ZM111.966 1.90909V0.909088H111.295L111.04 1.5302L111.966 1.90909ZM125.42 1.90909H126.42V0.909088H125.42V1.90909ZM125.42 95V96H126.42V95H125.42ZM114.875 95H113.875V96H114.875V95ZM114.875 24.2727H115.875V23.2727H114.875V24.2727ZM113.966 24.2727V23.2727H113.296L113.041 23.8923L113.966 24.2727ZM84.875 95V96H85.545L85.7998 95.3804L84.875 95ZM74.6932 95L73.7684 95.3804L74.0232 96H74.6932V95ZM45.6023 24.2727L46.5271 23.8923L46.2722 23.2727H45.6023V24.2727ZM44.6932 24.2727V23.2727H43.6932V24.2727H44.6932ZM44.6932 95V96H45.6932V95H44.6932ZM34.1477 95H33.1477V96H34.1477V95ZM34.1477 2.90909H47.6023V0.909088H34.1477V2.90909ZM46.6768 2.28798L78.3132 79.5607L80.1641 78.8029L48.5277 1.5302L46.6768 2.28798ZM79.2386 80.1818H80.3295V78.1818H79.2386V80.1818ZM81.255 79.5607L112.891 2.28798L111.04 1.5302L79.4041 78.8029L81.255 79.5607ZM111.966 2.90909H125.42V0.909088H111.966V2.90909ZM124.42 1.90909V95H126.42V1.90909H124.42ZM125.42 94H114.875V96H125.42V94ZM115.875 95V24.2727H113.875V95H115.875ZM114.875 23.2727H113.966V25.2727H114.875V23.2727ZM113.041 23.8923L83.9502 94.6196L85.7998 95.3804L114.891 24.6531L113.041 23.8923ZM84.875 94H74.6932V96H84.875V94ZM75.618 94.6196L46.5271 23.8923L44.6774 24.6531L73.7684 95.3804L75.618 94.6196ZM45.6023 23.2727H44.6932V25.2727H45.6023V23.2727ZM43.6932 24.2727V95H45.6932V24.2727H43.6932ZM44.6932 94H34.1477V96H44.6932V94ZM35.1477 95V1.90909H33.1477V95H35.1477ZM151.841 95V96H152.547L152.783 95.3345L151.841 95ZM140.023 95L139.084 94.6553L138.59 96H140.023V95ZM174.205 1.90909V0.909088H173.506L173.266 1.5644L174.205 1.90909ZM185.841 1.90909L186.78 1.5644L186.539 0.909088H185.841V1.90909ZM220.023 95V96H221.455L220.961 94.6553L220.023 95ZM208.205 95L207.262 95.3345L207.498 96H208.205V95ZM180.386 16.6364L181.329 16.3018L181.093 15.6364H180.386V16.6364ZM179.659 16.6364V15.6364H178.953L178.717 16.3018L179.659 16.6364ZM156.205 58.6364V57.6364H155.205V58.6364H156.205ZM203.841 58.6364H204.841V57.6364H203.841V58.6364ZM203.841 68.6364V69.6364H204.841V68.6364H203.841ZM156.205 68.6364H155.205V69.6364H156.205V68.6364ZM151.841 94H140.023V96H151.841V94ZM140.961 95.3447L175.143 2.25377L173.266 1.5644L139.084 94.6553L140.961 95.3447ZM174.205 2.90909H185.841V0.909088H174.205V2.90909ZM184.902 2.25377L219.084 95.3447L220.961 94.6553L186.78 1.5644L184.902 2.25377ZM220.023 94H208.205V96H220.023V94ZM209.147 94.6655L181.329 16.3018L179.444 16.9709L207.262 95.3345L209.147 94.6655ZM180.386 15.6364H179.659V17.6364H180.386V15.6364ZM178.717 16.3018L150.899 94.6655L152.783 95.3345L180.601 16.9709L178.717 16.3018ZM156.205 59.6364H203.841V57.6364H156.205V59.6364ZM202.841 58.6364V68.6364H204.841V58.6364H202.841ZM203.841 67.6364H156.205V69.6364H203.841V67.6364ZM157.205 68.6364V58.6364H155.205V68.6364H157.205ZM308.341 1.90909H309.341V0.909088H308.341V1.90909ZM308.341 95V96H309.341V95H308.341ZM297.432 95L296.61 95.5702L296.909 96H297.432V95ZM246.705 21.9091L247.526 21.3389L247.228 20.9091H246.705V21.9091ZM245.795 21.9091V20.9091H244.795V21.9091H245.795ZM245.795 95V96H246.795V95H245.795ZM234.523 95H233.523V96H234.523V95ZM234.523 1.90909V0.909088H233.523V1.90909H234.523ZM245.432 1.90909L246.253 1.3385L245.955 0.909088H245.432V1.90909ZM296.341 75.1818L295.52 75.7524L295.818 76.1818H296.341V75.1818ZM297.25 75.1818V76.1818H298.25V75.1818H297.25ZM297.25 1.90909V0.909088H296.25V1.90909H297.25ZM307.341 1.90909V95H309.341V1.90909H307.341ZM308.341 94H297.432V96H308.341V94ZM298.253 94.4298L247.526 21.3389L245.883 22.4793L296.61 95.5702L298.253 94.4298ZM246.705 20.9091H245.795V22.9091H246.705V20.9091ZM244.795 21.9091V95H246.795V21.9091H244.795ZM245.795 94H234.523V96H245.795V94ZM235.523 95V1.90909H233.523V95H235.523ZM234.523 2.90909H245.432V0.909088H234.523V2.90909ZM244.611 2.47967L295.52 75.7524L297.162 74.6112L246.253 1.3385L244.611 2.47967ZM296.341 76.1818H297.25V74.1818H296.341V76.1818ZM298.25 75.1818V1.90909H296.25V75.1818H298.25ZM297.25 2.90909H308.341V0.909088H297.25V2.90909ZM381.807 25.1818L380.814 25.2994L380.918 26.1818H381.807V25.1818ZM375.17 14.4545L374.622 15.2906L374.622 15.2906L375.17 14.4545ZM350.08 12.6364L349.683 11.7181L349.68 11.7196L350.08 12.6364ZM342.898 18.1364L342.094 17.5414L342.089 17.5482L342.898 18.1364ZM342.125 32.5L341.291 33.0514L341.296 33.0596L341.302 33.0677L342.125 32.5ZM346.761 36.9091L346.229 37.7556L346.239 37.7617L346.761 36.9091ZM352.67 39.7727L352.325 40.7114L352.338 40.7157L352.67 39.7727ZM358.352 41.5455L358.612 40.5798L358.607 40.5784L358.352 41.5455ZM367.807 44.0909L367.547 45.0565L367.553 45.0581L367.807 44.0909ZM375.898 46.7273L375.545 47.6628L375.548 47.664L375.898 46.7273ZM384.489 51.3182L383.909 52.1332L383.919 52.1404L384.489 51.3182ZM391.307 58.6818L392.166 58.1699L392.166 58.1699L391.307 58.6818ZM390.034 83.3636L389.195 82.8191L389.193 82.8235L390.034 83.3636ZM378.58 93.0455L378.15 92.1425L378.148 92.1435L378.58 93.0455ZM343.034 93.4091L342.628 94.3231L342.631 94.3241L343.034 93.4091ZM331.58 84.4091L330.767 84.9915L330.77 84.9957L331.58 84.4091ZM326.898 71V70H325.824L325.9 71.0712L326.898 71ZM338.534 71L339.53 70.9141L339.452 70H338.534V71ZM342.08 79.7273L341.334 80.3941L341.344 80.4043L342.08 79.7273ZM349.989 84.8182L349.656 85.7614L349.667 85.7651L349.989 84.8182ZM371.943 84.3636L372.32 85.2899L372.327 85.287L371.943 84.3636ZM380.08 78.4545L380.862 79.0769L380.866 79.0724L380.08 78.4545ZM380.489 62L381.235 61.3349L381.235 61.3349L380.489 62ZM373.67 57.2727L373.275 58.1914L373.275 58.1914L373.67 57.2727ZM364.534 54.0909L364.259 55.0525L364.266 55.0544L364.534 54.0909ZM353.08 50.8182L352.803 51.7793L352.805 51.7797L353.08 50.8182ZM335.807 41.8636L335.132 42.6017L335.132 42.6017L335.807 41.8636ZM333.67 13L332.862 12.4111L332.861 12.4122L333.67 13ZM345.125 3.90909L345.535 4.82123L345.538 4.82004L345.125 3.90909ZM377.261 3.86363L376.843 4.77178L376.848 4.774L377.261 3.86363ZM388.352 12.5909L387.548 13.1846L387.551 13.1888L388.352 12.5909ZM392.716 25.1818V26.1818H393.749L393.715 25.1496L392.716 25.1818ZM382.8 25.0642C382.22 20.1647 379.845 16.326 375.719 13.6185L374.622 15.2906C378.254 17.674 380.303 20.9868 380.814 25.2994L382.8 25.0642ZM375.719 13.6185C371.645 10.945 366.687 9.63636 360.898 9.63636V11.6364C366.381 11.6364 370.938 12.8732 374.622 15.2906L375.719 13.6185ZM360.898 9.63636C356.67 9.63636 352.924 10.3202 349.683 11.7181L350.476 13.5546C353.417 12.2859 356.883 11.6364 360.898 11.6364V9.63636ZM349.68 11.7196C346.483 13.1123 343.94 15.0472 342.094 17.5414L343.701 18.7313C345.31 16.5588 347.555 14.8271 350.479 13.5531L349.68 11.7196ZM342.089 17.5482C340.264 20.0577 339.352 22.9165 339.352 26.0909H341.352C341.352 23.3259 342.138 20.8817 343.706 18.7245L342.089 17.5482ZM339.352 26.0909C339.352 28.7398 339.984 31.0751 341.291 33.0514L342.959 31.9486C341.902 30.3491 341.352 28.4117 341.352 26.0909H339.352ZM341.302 33.0677C342.594 34.9414 344.24 36.5044 346.229 37.7555L347.294 36.0626C345.525 34.9501 344.08 33.5737 342.948 31.9323L341.302 33.0677ZM346.239 37.7617C348.174 38.9475 350.203 39.9309 352.325 40.7113L353.016 38.8341C351.017 38.0994 349.107 37.1737 347.284 36.0565L346.239 37.7617ZM352.338 40.7157C354.419 41.4502 356.339 42.0497 358.098 42.5125L358.607 40.5784C356.911 40.1321 355.044 39.5498 353.003 38.8297L352.338 40.7157ZM358.092 42.5111L367.547 45.0565L368.067 43.1253L358.612 40.5798L358.092 42.5111ZM367.553 45.0581C369.936 45.6837 372.599 46.5508 375.545 47.6628L376.251 45.7917C373.257 44.6613 370.526 43.7708 368.061 43.1237L367.553 45.0581ZM375.548 47.664C378.463 48.7534 381.25 50.2419 383.909 52.1331L385.068 50.5032C382.273 48.5157 379.333 46.9435 376.248 45.7906L375.548 47.664ZM383.919 52.1404C386.554 53.9646 388.73 56.3115 390.448 59.1938L392.166 58.1699C390.308 55.0521 387.938 52.4899 385.058 50.496L383.919 52.1404ZM390.448 59.1938C392.123 62.0047 392.989 65.4993 392.989 69.7273H394.989C394.989 65.228 394.066 61.359 392.166 58.1699L390.448 59.1938ZM392.989 69.7273C392.989 74.5722 391.722 78.9271 389.195 82.8191L390.873 83.9082C393.619 79.6789 394.989 74.9429 394.989 69.7273H392.989ZM389.193 82.8235C386.702 86.7041 383.038 89.8161 378.15 92.1425L379.009 93.9484C384.181 91.487 388.154 88.1444 390.876 83.9038L389.193 82.8235ZM378.148 92.1435C373.316 94.457 367.396 95.6364 360.352 95.6364V97.6364C367.611 97.6364 373.843 96.4218 379.011 93.9474L378.148 92.1435ZM360.352 95.6364C353.791 95.6364 348.162 94.5774 343.438 92.4941L342.631 94.3241C347.664 96.5438 353.58 97.6364 360.352 97.6364V95.6364ZM343.44 92.495C338.733 90.4066 335.062 87.512 332.389 83.8224L330.77 84.9957C333.673 89.0032 337.638 92.1086 342.628 94.3231L343.44 92.495ZM332.392 83.8266C329.751 80.14 328.247 75.8504 327.895 70.9288L325.9 71.0712C326.276 76.3314 327.893 80.9812 330.767 84.9915L332.392 83.8266ZM326.898 72H338.534V70H326.898V72ZM337.538 71.0859C337.857 74.7848 339.109 77.9073 341.334 80.3941L342.825 79.0605C340.929 76.9411 339.818 74.2455 339.53 70.9141L337.538 71.0859ZM341.344 80.4043C343.555 82.8083 346.335 84.5909 349.656 85.7613L350.321 83.875C347.279 82.803 344.786 81.1917 342.815 79.0502L341.344 80.4043ZM349.667 85.7651C352.992 86.8942 356.556 87.4545 360.352 87.4545V85.4545C356.755 85.4545 353.41 84.924 350.31 83.8713L349.667 85.7651ZM360.352 87.4545C364.764 87.4545 368.758 86.7398 372.32 85.2898L371.566 83.4374C368.28 84.7753 364.547 85.4545 360.352 85.4545V87.4545ZM372.327 85.287C375.883 83.8078 378.742 81.7437 380.862 79.0769L379.297 77.8322C377.417 80.1957 374.851 82.0709 371.559 83.4403L372.327 85.287ZM380.866 79.0724C383.011 76.3418 384.08 73.1518 384.08 69.5455H382.08C382.08 72.727 381.148 75.4764 379.293 77.8367L380.866 79.0724ZM384.08 69.5455C384.08 66.2585 383.156 63.4911 381.235 61.3349L379.742 62.6651C381.276 64.3877 382.08 66.6506 382.08 69.5455H384.08ZM381.235 61.3349C379.395 59.2683 376.994 57.6136 374.066 56.3541L373.275 58.1914C375.983 59.3561 378.128 60.8529 379.742 62.6651L381.235 61.3349ZM374.066 56.3541C371.202 55.1224 368.113 54.0473 364.802 53.1274L364.266 55.0544C367.5 55.9527 370.503 56.9988 373.275 58.1914L374.066 56.3541ZM364.809 53.1294L353.354 49.8567L352.805 51.7797L364.259 55.0524L364.809 53.1294ZM353.356 49.8571C346.186 47.7959 340.58 44.8727 336.482 41.1256L335.132 42.6017C339.518 46.6121 345.427 49.6587 352.803 51.7792L353.356 49.8571ZM336.482 41.1256C332.467 37.4547 330.443 32.6569 330.443 26.6364H328.443C328.443 33.1612 330.662 38.5149 335.132 42.6017L336.482 41.1256ZM330.443 26.6364C330.443 21.616 331.796 17.2807 334.479 13.5878L332.861 12.4122C329.908 16.4769 328.443 21.2325 328.443 26.6364H330.443ZM334.479 13.5889C337.216 9.83221 340.892 6.90772 345.535 4.82123L344.715 2.99695C339.783 5.21348 335.822 8.34961 332.862 12.4111L334.479 13.5889ZM345.538 4.82004C350.211 2.70374 355.447 1.63636 361.261 1.63636V-0.36364C355.197 -0.36364 349.675 0.750798 344.712 2.99813L345.538 4.82004ZM361.261 1.63636C367.141 1.63636 372.328 2.69009 376.843 4.77176L377.68 2.9555C372.862 0.73414 367.382 -0.36364 361.261 -0.36364V1.63636ZM376.848 4.774C381.377 6.83301 384.933 9.64008 387.548 13.1846L389.157 11.9973C386.317 8.14778 382.479 5.13668 377.675 2.95327L376.848 4.774ZM387.551 13.1888C390.184 16.7186 391.571 20.7173 391.716 25.2141L393.715 25.1496C393.557 20.2524 392.036 15.8571 389.154 11.993L387.551 13.1888ZM392.716 24.1818H381.807V26.1818H392.716V24.1818ZM412.523 95H411.523V96H412.523V95ZM412.523 1.90909V0.909088H411.523V1.90909H412.523ZM423.795 1.90909H424.795V0.909088H423.795V1.90909ZM423.795 43.3636H422.795V44.3636H423.795V43.3636ZM473.432 43.3636V44.3636H474.432V43.3636H473.432ZM473.432 1.90909V0.909088H472.432V1.90909H473.432ZM484.705 1.90909H485.705V0.909088H484.705V1.90909ZM484.705 95V96H485.705V95H484.705ZM473.432 95H472.432V96H473.432V95ZM473.432 53.3636H474.432V52.3636H473.432V53.3636ZM423.795 53.3636V52.3636H422.795V53.3636H423.795ZM423.795 95V96H424.795V95H423.795ZM413.523 95V1.90909H411.523V95H413.523ZM412.523 2.90909H423.795V0.909088H412.523V2.90909ZM422.795 1.90909V43.3636H424.795V1.90909H422.795ZM423.795 44.3636H473.432V42.3636H423.795V44.3636ZM474.432 43.3636V1.90909H472.432V43.3636H474.432ZM473.432 2.90909H484.705V0.909088H473.432V2.90909ZM483.705 1.90909V95H485.705V1.90909H483.705ZM484.705 94H473.432V96H484.705V94ZM474.432 95V53.3636H472.432V95H474.432ZM473.432 52.3636H423.795V54.3636H473.432V52.3636ZM422.795 53.3636V95H424.795V53.3636H422.795ZM423.795 94H412.523V96H423.795V94ZM568.364 1.90909V0.909088H567.364V1.90909H568.364ZM579.636 1.90909H580.636V0.909088H579.636V1.90909ZM575.136 80.5909L574.279 80.0764L574.278 80.078L575.136 80.5909ZM562.545 92.3636L563.01 93.249L563.014 93.2469L562.545 92.3636ZM524.364 92.3636L523.895 93.247L523.899 93.249L524.364 92.3636ZM511.727 80.5909L510.867 81.1016L510.871 81.1077L511.727 80.5909ZM507.273 1.90909V0.909088H506.273V1.90909H507.273ZM518.545 1.90909H519.545V0.909088H518.545V1.90909ZM521.545 74.7727L520.674 75.2641L520.676 75.2673L521.545 74.7727ZM530.091 83.0909L529.61 83.9675L529.618 83.9721L530.091 83.0909ZM556.818 83.0909L557.291 83.9721L557.297 83.9691L556.818 83.0909ZM565.364 74.7727L564.493 74.2814L564.491 74.2839L565.364 74.7727ZM568.364 2.90909H579.636V0.909088H568.364V2.90909ZM578.636 1.90909V63.5455H580.636V1.90909H578.636ZM578.636 63.5455C578.636 69.745 577.177 75.2459 574.279 80.0764L575.994 81.1054C579.096 75.9359 580.636 70.0732 580.636 63.5455H578.636ZM574.278 80.078C571.408 84.8813 567.35 88.6817 562.077 91.4803L563.014 93.2469C568.59 90.288 572.926 86.2399 575.995 81.1039L574.278 80.078ZM562.081 91.4783C556.825 94.2383 550.627 95.6364 543.455 95.6364V97.6364C550.889 97.6364 557.418 96.186 563.01 93.249L562.081 91.4783ZM543.455 95.6364C536.283 95.6364 530.084 94.2383 524.829 91.4783L523.899 93.249C529.491 96.186 536.02 97.6364 543.455 97.6364V95.6364ZM524.832 91.4803C519.558 88.6813 515.484 84.8798 512.583 80.0741L510.871 81.1077C513.97 86.2415 518.32 90.2884 523.895 93.2469L524.832 91.4803ZM512.587 80.0802C509.718 75.2491 508.273 69.7468 508.273 63.5455H506.273C506.273 70.0713 507.797 75.9327 510.867 81.1016L512.587 80.0802ZM508.273 63.5455V1.90909H506.273V63.5455H508.273ZM507.273 2.90909H518.545V0.909088H507.273V2.90909ZM517.545 1.90909V62.6364H519.545V1.90909H517.545ZM517.545 62.6364C517.545 67.3335 518.58 71.5518 520.674 75.264L522.416 74.2814C520.511 70.9028 519.545 67.0302 519.545 62.6364H517.545ZM520.676 75.2673C522.772 78.9502 525.758 81.8521 529.61 83.9674L530.572 82.2144C527.03 80.2691 524.319 77.6255 522.415 74.2782L520.676 75.2673ZM529.618 83.9721C533.52 86.0658 538.144 87.0909 543.455 87.0909V85.0909C538.401 85.0909 534.116 84.1161 530.564 82.2097L529.618 83.9721ZM543.455 87.0909C548.765 87.0909 553.389 86.0658 557.291 83.9721L556.345 82.2097C552.793 84.1161 548.508 85.0909 543.455 85.0909V87.0909ZM557.297 83.9691C561.18 81.8537 564.169 78.95 566.236 75.2616L564.491 74.2839C562.619 77.6258 559.911 80.2675 556.34 82.2127L557.297 83.9691ZM566.235 75.264C568.329 71.5518 569.364 67.3335 569.364 62.6364H567.364C567.364 67.0302 566.399 70.9028 564.493 74.2814L566.235 75.264ZM569.364 62.6364V1.90909H567.364V62.6364H569.364Z" fill="black"/>
</svg>
