<svg version="1.2" xmlns="http://www.w3.org/2000/svg" viewBox="0 0 1500 300" fill="currentColor">
	<path d="m0 0h1500v148.8c0 141.1 0.9 145.7 0.9 152.4 0 1.4-9.1-14-14.9-21.3-5.8-7.2-16.8-21.1-24.4-30.8-7.7-9.7-19.1-23.7-25.5-31.1-6.3-7.4-15.3-17.8-20-23-4.7-5.2-16.3-17.8-25.8-28-9.4-10.2-22.5-23.5-29-29.6-6.5-6.1-18.8-17-27.3-24.3-8.5-7.3-22.3-18.4-30.5-24.6-8.3-6.2-19.7-14.2-25.5-17.7-5.8-3.5-14.8-8.7-20-11.5-5.2-2.8-12.9-6.5-17-8.1-4.1-1.7-10.7-4.3-14.5-5.7-3.8-1.4-12-3.9-18-5.5-6-1.6-15.5-3.4-21-4.1-6.5-0.8-16.4-1-28-0.6-12.5 0.4-21.1 1.3-28 2.7-5.5 1.2-15 3.7-21 5.7-6 1.9-16.8 6.3-24 9.7-7.2 3.5-24.9 13.6-39.5 22.6-14.6 9-36.4 22.6-48.5 30.3-12.1 7.7-27.6 17.6-34.5 21.9-6.9 4.4-21.7 12.6-33 18.2-11.3 5.6-27.5 12.9-36 16.3-8.5 3.4-22.3 8.2-30.5 10.8-8.3 2.6-25.4 7.3-38 10.5-12.6 3.2-30.9 7.5-40.5 9.4-9.6 1.9-27.2 4.7-39 6-11.8 1.4-28.5 3.3-37 4.2-12.3 1.3-21.1 1.5-42.5 1-14.9-0.3-34.9-1.1-44.5-1.6-9.6-0.6-23.4-1.7-30.5-2.6-7.1-0.8-21.5-2.8-32-4.5-10.5-1.6-28.9-5.2-41-8-12.1-2.7-27.9-6.6-35-8.5-7.1-2-24.9-7.4-39.5-12-14.6-4.6-33.5-10.3-42-12.8-8.5-2.4-23.4-6-33-8-9.6-1.9-25.4-4.4-35-5.5-9.6-1.1-24.3-2.5-32.5-3.2-11.2-0.9-20-0.9-35-0.1-17.1 0.9-23.9 1.8-46.5 6.2-18.6 3.6-30.8 6.5-41 9.9-8 2.7-20.8 7.7-28.5 11.2-7.7 3.6-19.8 9.6-26.9 13.4-7.5 4.1-19.2 11.8-28 18.4-8.3 6.3-19.8 15.3-25.6 20-5.8 4.6-15.5 13.5-21.5 19.6-6 6.1-13.5 14.2-16.6 18-3.1 3.9-11.4 14.9-18.4 24.5-7 9.6-14 19.9-14.5 21-0.4 1.1 0.1-67.1 0.1-149.8z"/>
</svg>