<svg version="1.2" xmlns="http://www.w3.org/2000/svg" viewBox="0 0 1500 300" fill="currentColor">
	<path d="m0.1 151.1c0-82.7-0.5-150.9-0.1-149.8 0.5 1.1 7.5 11.4 14.5 21 7 9.6 15.3 20.6 18.4 24.5 3.1 3.8 10.6 11.9 16.6 18 6 6.1 15.7 15 21.5 19.6 5.8 4.7 17.3 13.7 25.6 20 8.8 6.6 20.5 14.3 28 18.4 7.1 3.8 19.2 9.8 26.9 13.4 7.7 3.5 20.5 8.5 28.5 11.2 10.2 3.4 22.4 6.3 41 9.9 22.6 4.4 29.4 5.3 46.5 6.2 15 0.8 23.8 0.8 35-0.1 8.2-0.7 22.9-2.1 32.5-3.2 9.6-1.1 25.4-3.6 35-5.5 9.6-2 24.5-5.6 33-8 8.5-2.5 27.4-8.2 42-12.8 14.6-4.6 32.4-10 39.5-12 7.1-1.9 22.9-5.8 35-8.5 12.1-2.8 30.5-6.4 41-8 10.5-1.7 24.9-3.7 32-4.5 7.1-0.9 20.9-2 30.5-2.6 9.6-0.5 29.6-1.3 44.5-1.6 21.4-0.5 30.2-0.3 42.5 1 8.5 0.9 25.2 2.8 37 4.2 11.8 1.3 29.4 4.1 39 6 9.6 1.9 27.9 6.2 40.5 9.4 12.6 3.2 29.7 7.9 38 10.5 8.2 2.6 22 7.4 30.5 10.8 8.5 3.4 24.7 10.7 36 16.3 11.3 5.6 26.1 13.8 33 18.2 6.9 4.3 22.4 14.2 34.5 21.9 12.1 7.7 33.9 21.3 48.5 30.3 14.6 9 32.3 19.1 39.5 22.6 7.2 3.4 18 7.8 24 9.7 6 2 15.5 4.5 21 5.7 6.9 1.4 15.5 2.3 28 2.7 11.6 0.4 21.5 0.2 28-0.6 5.5-0.7 15-2.5 21-4.1 6-1.6 14.2-4.1 18-5.5 3.8-1.4 10.4-4 14.5-5.7 4.1-1.6 11.8-5.3 17-8.1 5.2-2.8 14.2-8 20-11.5 5.8-3.5 17.2-11.5 25.5-17.7 8.2-6.2 22-17.3 30.5-24.6 8.5-7.3 20.8-18.2 27.3-24.3 6.5-6.1 19.6-19.4 29-29.6 9.5-10.2 21.1-22.8 25.8-28 4.7-5.2 13.7-15.6 20-23 6.4-7.4 17.8-21.4 25.5-31.1 7.6-9.7 18.6-23.6 24.4-30.8 5.8-7.3 14.9-22.7 14.9-21.3 0 6.7-0.9 11.3-0.9 152.4v148.8h-1500z"/>
</svg>